<?xml version="1.0" standalone="no"?>
<!DOCTYPE svg PUBLIC "-//W3C//DTD SVG 1.1//EN" "http://www.w3.org/Graphics/SVG/1.1/DTD/svg11.dtd" >
<svg xmlns="http://www.w3.org/2000/svg">
<metadata>
This is a custom SVG font generated by IcoMoon.
<iconset grid="16"></iconset>
</metadata>
<defs>
<font id="icons-presto" horiz-adv-x="512" >
<font-face units-per-em="512" ascent="480" descent="-32" />
<missing-glyph horiz-adv-x="512" />
<glyph class="hidden" unicode="&#xf000;" d="M0,480L 512 -32L0 -32 z" horiz-adv-x="0" />
<glyph unicode="&#x25;" d="M 219.429,205.714l0-109.714 q0-22.857 -16-38.857t-38.857-16l-109.714,0 q-22.857,0 -38.857,16t-16,38.857l0,201.143 q0,29.714 11.571,56.714t 31.286,46.714t 46.714,31.286t 56.714,11.571l 18.286,0 q 7.429,0 12.857-5.429t 5.429-12.857l0-36.571 q0-7.429 -5.429-12.857t-12.857-5.429l-18.286,0 q-30.286,0 -51.714-21.429t-21.429-51.714l0-9.143 q0-11.429 8-19.429t 19.429-8l 64,0 q 22.857,0 38.857-16t 16-38.857z M 475.429,205.714l0-109.714 q0-22.857 -16-38.857t-38.857-16l-109.714,0 q-22.857,0 -38.857,16t-16,38.857l0,201.143 q0,29.714 11.571,56.714t 31.286,46.714t 46.714,31.286t 56.714,11.571l 18.286,0 q 7.429,0 12.857-5.429t 5.429-12.857l0-36.571 q0-7.429 -5.429-12.857t-12.857-5.429l-18.286,0 q-30.286,0 -51.714-21.429t-21.429-51.714l0-9.143 q0-11.429 8-19.429t 19.429-8l 64,0 q 22.857,0 38.857-16t 16-38.857z" horiz-adv-x="475.429" data-tags="quote-left, ldquo" />
<glyph unicode="&#x26;" d="M 427.5,96l-43.5,0 l-128-128l0,128 l-171.5,0 q-28.5,0 -56.5,28.5t-28,57.5l0,212 q0,29 28,57.5t 56.5,28.5l 343,0 q 28.5,0 56.5-28.5t 28-57.5l0-212 q0-29 -28-57.5t-56.5-28.5zM 224,288q0,13.5 -9.25,22.75t-22.75,9.25l-32,0 l0,32 l 16,0 q 6.5,0 11.25,4.75t 4.75,11.25t-4.75,11.25t-11.25,4.75l-48,0 q-13,0 -22.5-9.5t-9.5-22.5l0-128 
q0-13 9.5-22.5t 22.5-9.5l 64,0 q 13,0 22.5,9.5t 9.5,22.5l0,64 zM 416,288q0,13.5 -9.5,22.75t-22.5,9.25l-32,0 l0,32 l 16,0 q 6.5,0 11.25,4.75t 4.75,11.25t-4.75,11.25t-11.25,4.75l-48,0 q-13.5,0 -22.75-9.5t-9.25-22.5l0-128 q0-13 9.25-22.5t 22.75-9.5l 64,0 q 13,0 22.5,9.25t 9.5,22.75l0,64 z" data-tags="quote" />
<glyph unicode="&#x27;" d="M 464-32q-20,0 -34,14t-14,34q0,75 -29.25,143t-78.5,117.25t-117.25,78.5t-143,29.25q-20,0 -34,14t-14,34t 14,34t 34,14q 63,0 123.25-16.75t 111-46.5t 93.75-72.75t 72.75-93.75t 46.5-111t 16.75-123.25q0-20 -14-34t-34-14zM 48,288q 55.5,0 105.75-21.5t 86.75-58t 58-86.75
t 21.5-105.75q0-20 -14-34t-34-14t-34,14t-14,34q0,75.5 -50.25,125.75t-125.75,50.25q-20,0 -34,14t-14,34t 14,34t 34,14zM 64,96q 26.5,0 45.25-18.75t 18.75-45.25t-18.75-45.25t-45.25-18.75t-45.25,18.75t-18.75,45.25t 18.75,45.25t 45.25,18.75z" data-tags="rss" />
<glyph unicode="&#x28;" d="M 480-32l-447.5,0 q-13.5,0 -22.75,9.25t-9.25,22.5t 9.25,22.75t 22.75,9.5l 447.5,0 q 13.5,0 22.75-9.5t 9.25-22.75t-9.25-22.5t-22.75-9.25zM 413.5,83.5q-1-1 -4.25-4.5t-5.25-5.5t-5.5-4.5t-7-3.75t-7.5-1.25l-128,0 q-3.5,0 -7.25,1.5t-7.5,4.25t-6,4.75t-5.25,5.25t-3.5,3.75l-218,218q-8.5,9 -8.5,21.25t 8.5,20.75
l 65.25,65.25l 62.75,62.75q 8.5,8.5 20.75,8.5t 21.25-8.5l 292.5-293q 9-8.5 9-20.75t-9-21.25q-2.5-3 -26-24t-31.5-29zM 272,294l-86-86l 80-80l 108.5,0 l 32,32z" data-tags="eraser" />
<glyph unicode="&#x29;" d="M 440,280l-56-56l-16,0 l-56,56l-56-56l-16,0 l-56,56l-56-56l-16,0 l-56,56l-24-24l0,192 q0,13 9.5,22.5t 22.5,9.5l 384,0 q 13.5,0 22.75-9.5t 9.25-22.5l0-208 zM 48,224l 16,0 l 56-56l 56,56l 16,0 l 56-56l 56,56l 16,0 l 56-56l 56,56l 16,0 l 32-32l0-192 q0-13 -9.25-22.5t-22.75-9.5
l-384,0 q-13,0 -22.5,9.5t-9.5,22.5l0,208 z" data-tags="pagebreak" />
<glyph unicode="&#x2a;" d="M 352,448 L 416,448 L 416,240 C 416,160.471 344.366,96 256,96 C 167.635,96 96,160.471 96,240 L 96,448 L 160,448 L 160,240 C 160,219.917 169.119,200.648 185.677,185.747 C 204.125,169.145 229.1,160 256,160 C 282.9,160 307.875,169.145 326.323,185.747 C 342.881,200.648 352,219.917 352,240 L 352,448 ZM 96,64L 416,64L 416,0L 96,0z" data-tags="underline, wysiwyg" />
<glyph unicode="&#x2b;" d="M 192,64L 512,64L 512,0L 192,0zM 192,256L 512,256L 512,192L 192,192zM 192,448L 512,448L 512,384L 192,384zM 96,480 L 96,352 L 64,352 L 64,448 L 32,448 L 32,480 ZM 64,217 L 64,192 L 128,192 L 128,160 L 32,160 L 32,233 L 96,263 L 96,288 L 32,288 L 32,320 L 128,320 L 128,247 ZM 128,128 L 128-32 L 32-32 L 32,0 L 96,0 L 96,32 L 32,32 L 32,64 L 96,64 L 96,96 L 32,96 L 32,128 Z" data-tags="numbered-list, list, items, nl" />
<glyph unicode="&#x2c;" d="M 192,384 C 315.712,384 416,283.711 416,160 L 368,160 C 368,207.012 349.693,251.209 316.451,284.451 C 283.209,317.693 239.011,336 192,336 L 192,384 ZM 192,480 C 368.73,480 512,336.73 512,160 L 464,160 C 464,196.74 456.815,232.357 442.645,265.859 C 428.947,298.243 409.328,327.337 384.333,352.333 C 359.337,377.329 330.243,396.948 297.859,410.645 C 264.357,424.815 228.741,432 192,432 L 192,480 ZM 287.195,255.196 C 309.074,233.318 319.993,204.643 319.98,175.971 C 288,127.973 288,64 288,64 C 160,64 64-32 64-32 L 57-25 L 45.435-13.435 L 187.226,128.356 C 188.784,128.123 190.377,128 192,128 C 209.673,128 224,142.327 224,160 C 224,177.673 209.673,192 192,192 C 174.327,192 160,177.673 160,160 C 160,158.377 160.123,156.783 160.356,155.226 L 18.565,13.435 L 0,32 C 0,32 96,128 96,256 C 96,256 159.999,256 207.999,288 C 236.663,288 265.326,277.065 287.195,255.196 Z" data-tags="blog, pen, feed, publish, broadcast, write" />
<glyph unicode="&#x2d;" d="M 32,480L 224,480L 224,448L 32,448zM 288,480L 480,480L 480,448L 288,448zM 476,320l-28,0 L 448,448 L 320,448 l0-128 L 192,320 L 192,448 L 64,448 l0-128 L 36,320 c-19.8,0-36-16.2-36-36l0-280 c0-19.8, 16.2-36, 36-36l 152,0 c 19.8,0, 36,16.2, 36,36L 224,192 l 64,0 
	l0-188 c0-19.8, 16.2-36, 36-36l 152,0 c 19.8,0, 36,16.2, 36,36L 512,284 C 512,303.8, 495.8,320, 476,320z M 174,0L 50,0 c-9.9,0-18,7.2-18,16
	s 8.1,16, 18,16l 124,0 c 9.9,0, 18-7.2, 18-16S 183.9,0, 174,0z M 272,224l-32,0 c-8.8,0-16,7.2-16,16s 7.2,16, 16,16l 32,0 c 8.8,0, 16-7.2, 16-16
	S 280.8,224, 272,224z M 462,0L 338,0 c-9.9,0-18,7.2-18,16s 8.1,16, 18,16l 124,0 c 9.9,0, 18-7.2, 18-16S 471.9,0, 462,0z" data-tags="binoculars, lookup, search, find" />
<glyph unicode="&#x2e;" d="M 288,355.814L 288,480 l 192-192L 288,96L 288,222.912 C 64.625,228.153, 74.206,71.016, 131.070-32
	C-9.286,119.707, 20.52,362.785, 288,355.814z" data-tags="redo, arrow, right" />
<glyph unicode="&#x2f;" d="M 380.931-32C 437.794,71.016, 447.375,228.153, 224,222.912L 224,96 L 32,288L 224,480l0-124.186 
	C 491.481,362.785, 521.285,119.707, 380.931-32z" data-tags="undo, arrow, left" />
<glyph unicode="&#x30;" d="M 352,32 L 480,32 L 512,96 L 512-32 L 320-32 L 320,75.107 C 385.556,103.349 432,173.688 432,256 C 432,363.216 353.201,447.133 256,447.133 C 158.797,447.133 80,363.217 80,256 C 80,173.688 126.443,103.349 192,75.107 L 192-32 L 0-32 L 0,96 L 32,32 L 160,32 L 160,48.295 C 66.185,81.525 0,161.996 0,256 C 0,379.712 114.615,480 256,480 C 397.385,480 512,379.712 512,256 C 512,161.996 445.815,81.525 352,48.295 L 352,32 Z" data-tags="omega, symbols, wysiwyg" />
<glyph unicode="&#x31;" d="M 448-32l-352,0 q-26.5,0 -45.25,18.75t-18.75,45.25l0,352 q0,26.5 18.75,45.25t 45.25,18.75l0-64 q0-13.5 9.5-22.75t 22.5-9.25l 32,0 q 13.5,0 22.75,9.25t 9.25,22.75l0,64 l 160,0 l0-64 q0-13.5 9.5-22.75t 22.5-9.25l 32,0 q 13.5,0 22.75,9.25t 9.25,22.75l0,64 q 26.5,0 45.25-18.75t 18.75-45.25l0-352 q0-26.5 -18.75-45.25
t-45.25-18.75zM 432,288l-320,0 q-6.5,0 -11.25-4.75t-4.75-11.25t 4.75-11.25t 11.25-4.75l 320,0 q 6.5,0 11.25,4.75t 4.75,11.25t-4.75,11.25t-11.25,4.75zM 432,192l-320,0 q-6.5,0 -11.25-4.75t-4.75-11.25t 4.75-11.25t 11.25-4.75l 320,0 q 6.5,0 11.25,4.75t 4.75,11.25t-4.75,11.25t-11.25,4.75zM 432,96l-320,0 
q-6.5,0 -11.25-4.75t-4.75-11.25t 4.75-11.25t 11.25-4.75l 320,0 q 6.5,0 11.25,4.75t 4.75,11.25t-4.75,11.25t-11.25,4.75zM 400,384q-6.5,0 -11.25,4.75t-4.75,11.25l0,64 q0,6.5 4.75,11.25t 11.25,4.75t 11.25-4.75t 4.75-11.25l0-64 q0-6.5 -4.75-11.25t-11.25-4.75zM 144,384q-6.5,0 -11.25,4.75t-4.75,11.25l0,64 
q0,6.5 4.75,11.25t 11.25,4.75t 11.25-4.75t 4.75-11.25l0-64 q0-6.5 -4.75-11.25t-11.25-4.75z" data-tags="notes" />
<glyph unicode="&#x32;" d="M 448-32l-16,0 q-6.5,0 -11.25,4.75t-4.75,11.25l0,32 q0,6.5 4.75,11.25t 11.25,4.75t 11.25,4.75t 4.75,11.25t 4.75,11.25t 11.25,4.75l 32,0 q 6.5,0 11.25-4.75t 4.75-11.25l0-16 q0-26.5 -18.75-45.25t-45.25-18.75zM 496,128l-32,0 q-6.5,0 -11.25,4.75t-4.75,11.25l0,32 q0,6.5 4.75,11.25t 11.25,4.75l 32,0 q 6.5,0 11.25-4.75
t 4.75-11.25l0-32 q0-6.5 -4.75-11.25t-11.25-4.75zM 496,256l-32,0 q-6.5,0 -11.25,4.75t-4.75,11.25l0,32 q0,6.5 4.75,11.25t 11.25,4.75l 32,0 q 6.5,0 11.25-4.75t 4.75-11.25l0-32 q0-6.5 -4.75-11.25t-11.25-4.75zM 496,384l-32,0 q-6.5,0 -11.25,4.75t-4.75,11.25t-4.75,11.25t-11.25,4.75t-11.25,4.75t-4.75,11.25l0,32 
q0,6.5 4.75,11.25t 11.25,4.75l 16,0 q 26.5,0 45.25-18.75t 18.75-45.25l0-16 q0-6.5 -4.75-11.25t-11.25-4.75zM 352,192l-64,0 l0-64 q0-13 -9.25-22.5t-22.75-9.5t-22.75,9.5t-9.25,22.5l0,64 l-64,0 q-13.5,0 -22.75,9.5t-9.25,22.75t 9.25,22.5t 22.75,9.25l 64,0 l0,64 q0,13.5 9.25,22.75t 22.75,9.25t 22.75-9.25
t 9.25-22.75l0-64 l 64,0 q 13,0 22.5-9.25t 9.5-22.5t-9.25-22.75t-22.75-9.5zM 336,416l-32,0 q-6.5,0 -11.25,4.75t-4.75,11.25l0,32 q0,6.5 4.75,11.25t 11.25,4.75l 32,0 q 6.5,0 11.25-4.75t 4.75-11.25l0-32 q0-6.5 -4.75-11.25t-11.25-4.75zM 208,416l-32,0 q-6.5,0 -11.25,4.75t-4.75,11.25l0,32 q0,6.5 4.75,11.25t 11.25,4.75
l 32,0 q 6.5,0 11.25-4.75t 4.75-11.25l0-32 q0-6.5 -4.75-11.25t-11.25-4.75zM 80-32l-16,0 q-26.5,0 -45.25,18.75t-18.75,45.25l0,16 q0,6.5 4.75,11.25t 11.25,4.75l 32,0 q 6.5,0 11.25-4.75t 4.75-11.25t 4.75-11.25t 11.25-4.75t 11.25-4.75t 4.75-11.25l0-32 q0-6.5 -4.75-11.25t-11.25-4.75zM 80,416q-6.5,0 -11.25-4.75
t-4.75-11.25t-4.75-11.25t-11.25-4.75l-32,0 q-6.5,0 -11.25,4.75t-4.75,11.25l0,16 q0,26.5 18.75,45.25t 45.25,18.75l 16,0 q 6.5,0 11.25-4.75t 4.75-11.25l0-32 q0-6.5 -4.75-11.25t-11.25-4.75zM 16,320l 32,0 q 6.5,0 11.25-4.75t 4.75-11.25l0-32 q0-6.5 -4.75-11.25t-11.25-4.75l-32,0 q-6.5,0 -11.25,4.75t-4.75,11.25l0,32 
q0,6.5 4.75,11.25t 11.25,4.75zM 16,192l 32,0 q 6.5,0 11.25-4.75t 4.75-11.25l0-32 q0-6.5 -4.75-11.25t-11.25-4.75l-32,0 q-6.5,0 -11.25,4.75t-4.75,11.25l0,32 q0,6.5 4.75,11.25t 11.25,4.75zM 176,32l 32,0 q 6.5,0 11.25-4.75t 4.75-11.25l0-32 q0-6.5 -4.75-11.25t-11.25-4.75l-32,0 q-6.5,0 -11.25,4.75t-4.75,11.25l0,32 
q0,6.5 4.75,11.25t 11.25,4.75zM 304,32l 32,0 q 6.5,0 11.25-4.75t 4.75-11.25l0-32 q0-6.5 -4.75-11.25t-11.25-4.75l-32,0 q-6.5,0 -11.25,4.75t-4.75,11.25l0,32 q0,6.5 4.75,11.25t 11.25,4.75z" data-tags="selectionadd" />
<glyph unicode="&#x33;" d="M 224,192L 192,224L 96,128L 192,32L 224,64L 160,128 	zM 288,64L 320,32L 416,128L 320,224L 288,192L 352,128 	zM 451.716,380.285l-71.432,71.431C 364.728,467.272, 334,480, 312,480L 72,480 C 50,480, 32,462, 32,440l0-432 c0-22, 18-40, 40-40l 368,0 
		c 22,0, 40,18, 40,40L 480,312 C 480,334, 467.272,364.729, 451.716,380.285z M 429.089,357.657c 1.565-1.565, 3.125-3.487, 4.64-5.657L 352,352 L 352,433.728 
		c 2.17-1.515, 4.092-3.075, 5.657-4.64L 429.089,357.657z M 448,8c0-4.336-3.664-8-8-8L 72,0 c-4.336,0-8,3.664-8,8L 64,440 
		c0,4.336, 3.664,8, 8,8l 240,0 c 2.416,0, 5.127-0.305, 8-0.852L 320,320 l 127.148,0 c 0.547-2.873, 0.852-5.583, 0.852-8L 448,8 z" data-tags="file-xml, file, format, code, html, xml" />
<glyph unicode="&#x34;" d="M 64,352l0-320 l 448,0 L 512,352 L 64,352 z M 480,85.333L 416,192l-72.533-60.444L 288,224L 96,64L 96,320 l 384,0 L 480,85.333 zM 128,240A48,48 7740 1 1 224,240A48,48 7740 1 1 128,240zM 448,416L0,416L0,96L 32,96L 32,384L 448,384 	z" data-tags="images, pictures, photos, graphics" />
<glyph unicode="&#x35;" d="M0,384L 160,448L 160,64L0,0 zM 352,384 L 352,0 L 192,53.333 L 192,437.333 ZM 512,448 L 512,64 L 384,12.8 L 384,396.8 Z" data-tags="map, location, guide" />
<glyph unicode="&#x36;" d="M 416-32l0,32 l-320,0 l0-32 l-96,0 l0,480 l 96,0 l0-32 l 320,0 l0,32 l 96,0 l0-480 l-96,0 zM 64,416l-32,0 l0-32 l 32,0 l0,32 zM 64,352l-32,0 l0-32 l 32,0 l0,32 zM 64,288l-32,0 l0-32 l 32,0 l0,32 zM 64,224l-32,0 l0-32 l 32,0 l0,32 zM 64,160l-32,0 l0-32 l 32,0 l0,32 zM 64,96l-32,0 l0-32 l 32,0 l0,32 zM 64,32l-32,0 l0-32 l 32,0 l0,32 zM 416,384l-320,0 l0-352 l 320,0 l0,352 z
M 480,416l-32,0 l0-32 l 32,0 l0,32 zM 480,352l-32,0 l0-32 l 32,0 l0,32 zM 480,288l-32,0 l0-32 l 32,0 l0,32 zM 480,224l-32,0 l0-32 l 32,0 l0,32 zM 480,160l-32,0 l0-32 l 32,0 l0,32 zM 480,96l-32,0 l0-32 l 32,0 l0,32 zM 480,32l-32,0 l0-32 l 32,0 l0,32 zM 192,128l0,160 l 128-80z" data-tags="video2" />
<glyph unicode="&#x37;" d="M 476.698,442.679l-2.014,2.021c-47.074,47.067-124.097,47.067-171.163,0L 194.468,335.632
		c-47.067-47.066-47.067-124.088,0-171.155l 2.013-2.013c 3.916-3.924, 8.073-7.462, 12.368-10.729l 39.924,39.925
		c-4.651,2.747-9.063,6.036-13.058,10.030l-2.021,2.021c-25.557,25.549-25.557,67.136,0,92.695L 342.758,405.462
		c 25.558,25.559, 67.137,25.559, 92.693,0l 2.021-2.012c 25.55-25.558, 25.55-67.146,0-92.695l-49.343-49.343
		c 8.566-21.154, 12.624-43.7, 12.269-66.193l 76.302,76.302C 523.767,318.589, 523.767,395.61, 476.698,442.679zM 315.521,285.533c-3.916,3.916-8.073,7.461-12.368,10.72l-39.924-39.916c 4.652-2.748, 9.063-6.037, 13.058-10.031l 2.021-2.020
		c 25.558-25.558, 25.558-67.136,0-92.694L 169.243,42.525c-25.559-25.551-67.138-25.551-92.694,0l-2.021,2.021
		c-25.549,25.56-25.549,67.138,0,92.694l 49.344,49.343c-8.567,21.153-12.623,43.701-12.269,66.193l-76.301-76.299
		c-47.068-47.066-47.068-124.089,0-171.162l 2.013-2.016c 47.076-47.064, 124.096-47.064, 171.164,0l 109.055,109.059
		c 47.067,47.066, 47.067,124.097,0,171.163L 315.521,285.533z" data-tags="link, chain, url, uri, anchor" />
<glyph unicode="&#xf428;" d="M 5.334-30.5q 8-8 56.75,26.5t 65.75,51.5l 263.5,263.5q 114.5-27.5 119.5-22q 5,4.5 5,11.25t -5,11.75l -163,163q -5,5 -11.75,5t -11.25-5q -5.5-5 22-119.5l -263.5-263.5q -17-17 -51.5-65.75t -26.5-56.75z" data-tags="nail" />
<glyph unicode="&#xe000;" d="M 480.002,335.997L 368.003,447.996L 400.003,479.996L 512.002,367.997zM 448,304 L 432,128 C 288,128 80-32 80-32 L 53.435-5.435 L 190.267,131.397 C 195.754,129.213 201.734,128 208,128 C 234.51,128 256,149.49 256,176 C 256,202.51 234.51,224 208,224 C 181.49,224 160,202.51 160,176 C 160,169.734 161.213,163.755 163.397,158.267 L 26.565,21.435 L 0,48 C 0,48 160,256 160,400 L 336,416 L 448,304 Z" data-tags="pen, blog, write, edit, note" />
<glyph unicode="&#xf193;" d="M 485.5,356l-0.5,0 l-35.5,59.5l-63.5-8.5l 40-60l-106-16.5l-40.5,60l-58-9l 40.5-60l-110-17.5l-38.5,63.5l-61-12l 40.5-60.5l-47.5-7.5l 52,0 l-32-63.5l 64,0 l 32,63.5l 96,0 l-32-63.5l 64,0 l 32,63.5l 96,0 l-32-63.5l 64,0 l 32,63.5q 13,0 22.5-9.25t 9.5-22.25l0-256 q0-13.5 -9.5-22.75t-22.5-9.25l-447.5,0 
q-13.5,0 -22.75,9.25t-9.25,22.75l0,256 q0,13 9.25,22.25t 22.75,9.25q-2.5,1 -6,2.75t-10.25,8.75t-8.25,15.5l-8,62q-1.5,12.5 6.75,22.75t 21.25,11.75l 441,68.5q 13,1.5 23.25-6.5t 11.75-20.5l 8-62q 1.5-12.5 -6.75-22.75t-21.25-11.75zM 81.5,32l 352,0 q 6.5,0 11.25,4.75t 4.75,11.25t-4.75,11.25t-11.25,4.75l-352,0 
q-6.5,0 -11.25-4.75t-4.75-11.25t 4.75-11.25t 11.25-4.75zM 81.5,128l 352,0 q 6.5,0 11.25,4.5t 4.75,11.25t-4.75,11.5t-11.25,4.75l-352,0 q-6.5,0 -11.25-4.75t-4.75-11.5t 4.75-11.25t 11.25-4.5z" data-tags="movie5" />
<glyph unicode="&#xe001;" d="M 448,352L 448,416 L0,416 l0-352 c0-17.673, 14.327-32, 32-32l 432,0 c 26.511,0, 48,21.489, 48,48L 512,352 L 448,352 z M 416,64L 32,64 L 32,384 l 384,0 L 416,64 zM 64,320L 384,320L 384,288L 64,288zM 256,256L 384,256L 384,224L 256,224zM 256,192L 384,192L 384,160L 256,160zM 256,128L 352,128L 352,96L 256,96zM 64,256L 224,256L 224,96L 64,96z" data-tags="newspaper, paper" />
<glyph unicode="&#xe002;" d="M 544,416L 32,416 C 14.4,416,0,401.6,0,384l0-320 c0-17.6, 14.4-32, 32-32l 512,0 c 17.6,0, 32,14.4, 32,32L 576,384 C 576,401.6, 561.6,416, 544,416z M 320,352
	l 64,0 l0-64 l-64,0 L 320,352 z M 416,256l0-64 l-64,0 l0,64 L 416,256 z M 224,352l 64,0 l0-64 l-64,0 L 224,352 z M 320,256l0-64 l-64,0 l0,64 L 320,256 z M 128,352l 64,0 l0-64 l-64,0 L 128,352 z M 224,256l0-64 
	l-64,0 l0,64 L 224,256 z M 64,352l 32,0 l0-64 L 64,288 L 64,352 z M 64,256l 64,0 l0-64 L 64,192 L 64,256 z M 96,96L 64,96 l0,64 l 32,0 L 96,96 z M 384,96L 128,96 l0,64 l 256,0 L 384,96 z M 512,96l-96,0 l0,64 l 96,0 
	L 512,96 z M 512,192l-64,0 l0,64 l 64,0 L 512,192 z M 512,288l-96,0 l0,64 l 96,0 L 512,288 z" horiz-adv-x="576" data-tags="keyboard, type, typing" />
<glyph unicode="&#xe003;" d="M0,480L 128,480L 128,352L0,352zM 192,448L 512,448L 512,384L 192,384zM0,288L 128,288L 128,160L0,160zM 192,256L 512,256L 512,192L 192,192zM0,96L 128,96L 128-32L0-32zM 192,64L 512,64L 512,0L 192,0z" data-tags="list, bullet, ul, todo, menu" />
<glyph unicode="&#xe004;" d="M 416,352l 96,96L 480,480l-96-96L 160,384 L 160,480 L 96,480 l0-96 L0,384 l0-64 l 96,0 l0-256 l 256,0 l0-96 l 64,0 l0,96 l 96,0 l0,64 l-96,0 L 416,352 z M 160,320l 160,0 L 160,160L 160,320 z M 192,128
	l 160,160l0-160 L 192,128 z" data-tags="crop, resize, cut" />
<glyph unicode="&#xe006;" d="M 304.64,55.662c-23.040-10.24-62.098-18.542-113.92-18.542C 76.837,37.083,0,106.203,0,220.16c0,96.658, 43.52,172.178, 108.8,215.662
		C 153.6,467.237, 206.738,481.938, 267.557,481.938c 46.702,0, 81.957-10.862, 94.062-18.542L 336.677,388.498c-12.8,6.4-40.96,14.080-78.117,14.080
		c-37.12,0-72.302-11.52-98.56-33.317C 123.538,339.858, 100.498,290.56, 100.498,230.4c0-68.498, 38.437-114.578, 114.578-114.578
		c 30.062,0, 60.16,5.12, 81.957,14.080L 304.64,55.662zM 698.222-33.938c-58.88,17.262-122.258,42.24-161.28,60.782c-19.822,8.96-26.222,10.862-30.062,10.862
		c-83.858,6.4-149.76,71.717-149.76,179.895c0,73.618, 26.222,148.48, 74.862,197.742C 474.185,458.898, 533.102,481.938, 593.883,481.938
		c 117.138,0, 174.080-83.822, 174.080-179.858c0-72.338-26.222-150.418-72.997-197.157c-16.64-17.262-38.437-32-62.757-42.24l0-1.28 
		c 26.222-7.022, 62.098-15.982, 98.56-22.382L 698.222-33.938z M 508.745,373.138c-34.56-35.218-53.76-104.96-53.76-155.538
		c0-60.782, 27.502-104.338, 89.637-104.338c 28.16,0, 52.517,11.52, 71.717,30.72c 33.938,34.597, 53.797,105.618, 53.797,157.477
		c0,48.64-19.2,103.68-86.418,103.68C 554.167,405.102, 528.603,392.997, 508.745,373.138z" horiz-adv-x="768" data-tags="CQ" />
<glyph unicode="&#xe005;" d="M 256,480 C 116.626,480 3.271,368.619 0.076,230.013 C 3.036,350.945 94.992,448 208,448 C 322.875,448 416,347.712 416,224 C 416,197.49 437.49,176 464,176 C 490.51,176 512,197.49 512,224 C 512,365.385 397.385,480 256,480 ZM 256-32 C 395.374-32 508.729,79.381 511.924,217.987 C 508.964,97.055 417.008,0 304,0 C 189.125,0 96,100.288 96,224 C 96,250.51 74.51,272 48,272 C 21.49,272 0,250.51 0,224 C 0,82.615 114.615-32 256-32 Z" data-tags="spinner, loading, busy, wait, wheel" />
<glyph unicode="&#xe007;" d="M 512,81.778L0,81.778 L0,366.222 l 512,0 L 512,81.778 z M 455.111,309.333L 56.889,309.333 l0-170.667 l 398.222,0 L 455.111,309.333 z" data-tags="aspect-16-9" />
<glyph unicode="&#xe008;" d="M 398.222,480l0-511.986 L 113.778-31.986 L 113.778,480 L 398.222,480 z M 170.667,423.111l0-398.208 l 170.667,0 L 341.319,423.111 L 170.667,423.111 z" data-tags="aspect-9-16" />
<glyph unicode="&#xe009;" d="M 512,32L0,32 l0,384 l 512,0 L 512,32 z M 455.111,359.111L 56.889,359.111 l0-270.222 l 398.222,0 L 455.111,359.111 z" data-tags="aspect-4-3" />
<glyph unicode="&#xe00a;" d="M 448,480l0-511.986 L 64-31.986 L 64,480 L 448,480 z M 120.889,423.111l0-398.208 l 270.208,0 L 391.097,423.111 L 120.889,423.111 z" data-tags="aspect-3-4" />
<glyph unicode="&#xe00b;" d="M 511.986-32L 0-32 L 0,480 l 511.986,0 L 511.986-32 z M 455.097,423.111L 56.889,423.111 l0-398.208 l 398.208,0 L 455.097,423.111 z" data-tags="aspect-1-1" />
<glyph unicode="&#xe00c;" d="M 350.25,223.176L 315.075,188L 385.426,188 	zM 482.075,268.482L 482.075,355.002L 438.816,311.743 	zM 386.075,460c0,4.333-1.583,8.083-4.75,11.25S 374.408,476, 370.075,476s-8.083-1.583-11.25-4.75s-4.75-6.917-4.75-11.25l0-55.866 
		l 32,32L 386.075,460 zM 114.075,380c 4.334,0, 8.084,1.583, 11.25,4.75s 4.75,6.917, 4.75,11.25L 130.075,460 c0,4.333-1.584,8.083-4.75,11.25
		S 118.409,476, 114.075,476s-8.084-1.583-11.25-4.75s-4.75-6.917-4.75-11.25l0-64 c0-4.333, 1.584-8.083, 4.75-11.25S 109.741,380, 114.075,380z
		M 454.899,130.992L 454.899,130.992c-3.605,0-7.144,0.639-10.517,1.896c-0.835,0.311-1.651,0.656-2.446,1.035l-2.438,0.002
		l-26.513,26.514c-3.097-2.949-6.729-4.439-10.911-4.439l-119,0 l-22.073-22.074l-2.432,0 c-0.794-0.377-1.606-0.723-2.439-1.033
		c-3.388-1.264-6.925-1.9-10.53-1.9c-8.018,0-15.557,3.119-21.228,8.785L 208.151,156L 82.075,156 c-4.334,0-8.084,1.584-11.25,4.75
		s-4.75,6.916-4.75,11.25s 1.584,8.084, 4.75,11.25s 6.916,4.75, 11.25,4.75l 94.298,0 c-6.761,8.21-8.741,19.53-4.972,29.621
		c 0.311,0.832, 0.655,1.645, 1.032,2.438l 11.717,14.148L 201.942,252L 82.075,252 c-4.334,0-8.084,1.583-11.25,4.75s-4.75,6.917-4.75,11.25
		s 1.584,8.083, 4.75,11.25s 6.916,4.75, 11.25,4.75l 151.867,0 l 27.742,27.743l-77.535,77.536l-0.008,0 l-5.859,5.865
		c-3.056,3.059-5.373,6.671-6.888,10.738c-4.102,10.985-1.396,23.452, 6.899,31.746L 184.667,444l-22.592,0 l0-64 
		c0-9-3.084-16.583-9.25-22.75s-13.75-9.25-22.75-9.25l-32,0 c-8.666,0-16.166,3.083-22.5,9.25s-9.5,13.75-9.5,22.75L 66.075,444 
		c-17.666,0-32.75-6.25-45.25-18.75S 2.075,397.667, 2.075,380l0-352 c0-17.667, 6.25-32.75, 18.75-45.25S 48.409-36, 66.075-36l 352,0 
		c 17.667,0, 32.75,6.25, 45.25,18.75s 18.75,27.583, 18.75,45.25L 482.075,145.727 l-5.941-5.941C 470.461,134.113, 462.92,130.992, 454.899,130.992z
		 M 413.325,64.75c-3.167-3.167-6.917-4.75-11.25-4.75l-320,0 c-4.334,0-8.084,1.583-11.25,4.75s-4.75,6.917-4.75,11.25
		c0,4.334, 1.584,8.084, 4.75,11.25s 6.916,4.75, 11.25,4.75l 320,0 c 4.333,0, 8.083-1.584, 11.25-4.75s 4.75-6.916, 4.75-11.25
		C 418.075,71.667, 416.492,67.917, 413.325,64.75zM 322.075,444L 306.56,444L 322.075,428.484 	zM 508.067,214.205c-0.001,0.002-0.002,0.002-0.004,0.002l-97.531,97.536l 97.531,97.534c 0.002,0.001, 0.003,0.002, 0.003,0.002
	c 1.051,1.051, 1.81,2.278, 2.297,3.585c 1.333,3.571, 0.573,7.749-2.3,10.621L 461.99,469.559c-2.872,2.871-7.048,3.63-10.62,2.297
	c-1.308-0.486-2.534-1.246-3.585-2.294c0-0.001-0.001-0.002-0.001-0.002l-97.534-97.534l-97.532,97.533
	c-0.003,0.001-0.003,0.001-0.004,0.004c-1.050,1.048-2.277,1.807-3.584,2.294c-3.572,1.333-7.749,0.573-10.622-2.298l-46.072-46.074
	c-2.872-2.872-3.633-7.049-2.299-10.622c 0.486-1.306, 1.246-2.534, 2.295-3.583c 0.002,0, 0.002-0.002, 0.004-0.002l 97.533-97.534
	l-97.533-97.536c-0.002,0-0.002-0.002-0.002-0.002c-1.051-1.051-1.809-2.277-2.297-3.584c-1.334-3.57-0.573-7.748, 2.299-10.621
	l 46.072-46.074c 2.874-2.871, 7.050-3.631, 10.622-2.299c 1.307,0.488, 2.534,1.248, 3.585,2.297c0,0, 0.001,0.002, 0.003,0.002
	l 97.532,97.534l 97.533-97.534c 0.002,0, 0.002-0.002, 0.004-0.002c 1.052-1.049, 2.277-1.809, 3.583-2.297
	c 3.572-1.332, 7.749-0.572, 10.621,2.299L 508.063,200c 2.873,2.873, 3.634,7.051, 2.3,10.621
	C 509.876,211.928, 509.117,213.154, 508.067,214.205z" data-tags="notes-not-published" />
<glyph unicode="&#xe00d;" d="M 64.124,95.256c-17.701,0-32.813-6.262-45.337-18.787C 6.262,63.945,0,48.833,0,31.132
		c0-17.702, 6.262-32.813, 18.787-45.339c 12.524-12.523, 27.636-18.785, 45.337-18.785c 17.701,0, 32.813,6.262, 45.338,18.785
		c 12.524,12.525, 18.786,27.637, 18.786,45.339c0,17.701-6.262,32.813-18.786,45.337C 96.938,88.994, 81.825,95.256, 64.124,95.256zM 279.896,158.356l-24.422-24.423l-2.432,0 c-0.794-0.377-1.606-0.723-2.439-1.033c-3.388-1.264-6.925-1.9-10.53-1.9
		c-8.018,0-15.557,3.119-21.228,8.785l-46.080,46.082c-8.296,8.299-11,20.766-6.891,31.762c 0.311,0.832, 0.655,1.645, 1.032,2.438
		l 11.717,14.148l 12.703,12.703c-11.726,7.152-24.145,13.549-37.277,19.168c-33.565,14.361-68.883,21.542-105.955,21.542
		c-13.359,0-24.714-4.676-34.066-14.027C 4.676,264.249,0,252.894,0,239.535c0-13.36, 4.676-24.715, 14.027-34.066
		c 9.352-9.353, 20.707-14.027, 34.066-14.027c 50.432,0, 92.429-16.782, 125.994-50.347c 33.565-33.565, 50.348-75.563, 50.348-125.993
		c0-13.359, 4.676-24.717, 14.027-34.066c 9.352-9.352, 20.707-14.027, 34.066-14.027c 13.36,0, 24.714,4.676, 34.066,14.027
		c 9.351,9.35, 14.026,20.707, 14.026,34.066c0,37.071-7.181,72.389-21.541,105.954C 293.456,134.197, 287.054,146.623, 279.896,158.356zM 496.211,138.589c-1.937,6.965-4.012,13.827-6.208,20.602l-19.397-19.397c-5.673-5.672-13.214-8.793-21.234-8.793
		c-0.001,0,0,0-0.001,0c-3.604,0-7.143,0.639-10.516,1.896c-0.835,0.311-1.651,0.656-2.446,1.035l-2.438,0.002l-68.951,68.951
		c 8.273-14.104, 15.779-28.928, 22.48-44.507c 19.537-45.422, 29.306-93.181, 29.306-143.276c0-13.359, 4.676-24.717, 14.027-34.066
		c 9.352-9.352, 20.708-14.027, 34.065-14.027c 13.359,0, 24.717,4.676, 34.066,14.027c 9.352,9.35, 14.028,20.707, 14.028,34.066
		C 512.993,57.183, 507.398,98.346, 496.211,138.589zM 48.093,383.814c 50.098,0, 97.856-9.77, 143.277-29.307c 15.58-6.702, 30.405-14.209, 44.512-22.482l-57.261,57.262l-0.008,0 
		l-5.859,5.865c-3.056,3.059-5.374,6.671-6.888,10.738c-4.102,10.985-1.396,23.452, 6.9,31.746l 19.385,19.385
		c-6.764,2.192-13.615,4.264-20.568,6.197C 131.337,474.405, 90.175,480, 48.093,480C 34.734,480, 23.378,475.324, 14.027,465.973
		C 4.676,456.622,0,445.266,0,431.907c0-13.359, 4.676-24.714, 14.027-34.066C 23.378,388.489, 34.734,383.814, 48.093,383.814zM 442.259,153.932c 1.052-1.049, 2.277-1.809, 3.583-2.297c 3.572-1.332, 7.749-0.572, 10.621,2.299l 46.072,46.074
		c 2.873,2.873, 3.634,7.051, 2.3,10.621c-0.487,1.307-1.246,2.533-2.296,3.584c-0.001,0.002-0.002,0.002-0.004,0.002l-97.531,97.536
		l 97.531,97.534c 0.002,0.001, 0.003,0.002, 0.003,0.002c 1.051,1.051, 1.81,2.278, 2.297,3.585c 1.333,3.571, 0.573,7.749-2.3,10.621
		l-46.073,46.074c-2.872,2.871-7.048,3.63-10.62,2.297c-1.308-0.486-2.534-1.246-3.585-2.294c0-0.001-0.001-0.002-0.001-0.002
		l-97.534-97.534l-97.532,97.533c-0.003,0.001-0.003,0.001-0.004,0.004c-1.050,1.048-2.277,1.807-3.584,2.294
		c-3.572,1.333-7.749,0.573-10.622-2.298l-46.072-46.074c-2.872-2.872-3.633-7.049-2.299-10.622
		c 0.486-1.306, 1.246-2.534, 2.295-3.583c 0.002,0, 0.002-0.002, 0.004-0.002l 97.533-97.534l-97.533-97.536
		c-0.002,0-0.002-0.002-0.002-0.002c-1.051-1.051-1.809-2.277-2.297-3.584c-1.334-3.57-0.573-7.748, 2.299-10.621l 46.072-46.074
		c 2.874-2.871, 7.050-3.631, 10.622-2.299c 1.307,0.488, 2.534,1.248, 3.585,2.297c0,0, 0.001,0.002, 0.003,0.002l 97.532,97.534
		l 97.533-97.534C 442.257,153.934, 442.257,153.932, 442.259,153.932z" data-tags="no-syndication" />
<glyph unicode="&#xe00e;" d="M 25.339,439.046L 143.453,319.375L 146.902,325.5L 62.995,471.293 	zM 130.631,472.394L 172.014,300.957L 177.894,304.055L 178.012,477.042 	zM 2,322.367L 157.252,279.693L 157.65,286.901L 21.237,370.639 	zM 486.661,7.996L 368.547,127.667L 365.098,121.542L 449.006-24.252 	zM 381.369-25.352L 339.986,146.085L 334.106,142.987L 333.988-30 	zM 510,124.675L 354.748,167.349L 354.35,160.142L 490.763,76.403 	zM 233.694,296.406L 342.758,405.462c 25.559,25.559, 67.137,25.559, 92.693,0l 2.021-2.012c 25.55-25.558, 25.55-67.146,0-92.695
	l-49.343-49.343c 8.566-21.154, 12.624-43.7, 12.27-66.193l 76.302,76.302c 47.066,47.068, 47.066,124.089-0.002,171.158l-2.015,2.021
	c-47.073,47.067-124.097,47.067-171.162,0L 194.468,335.632 M 278.309,151.592L 169.243,42.525c-25.559-25.552-67.138-25.552-92.694,0
	l-2.021,2.021c-25.549,25.561-25.549,67.138,0,92.694l 49.344,49.343c-8.567,21.153-12.623,43.701-12.269,66.193l-76.301-76.299
	c-47.068-47.065-47.068-124.089,0-171.162l 2.013-2.016c 47.076-47.063, 124.096-47.063, 171.164,0l 109.055,109.059" data-tags="link-break" />
<glyph unicode="&#xf068;" d="M 503,203l-99-130q-9-8.5 -21.75-8.5t-21.75,8.75t-9,21.5t 9,21.75l 82.5,108l-82.5,108q-9,9 -9,21.5t 9,21.5t 21.75,9t 21.75-9l 99-129.5q 9-9 9-21.5t-9-21.5zM 256,0q-0.5-1.5 -1.5-5.75t-1.5-5.75l-1.75-5.25t-2.5-5.25t-3.75-4t-5.25-3.5t-6.75-1.75t-9-0.75q-12,0 -23,12.5
t-8,24l 63,444q 8.5,32 48,32q 11,0 14.75-11.75t 0.25-24.75zM 151.5,73.25q-9-8.75 -21.75-8.75t-21.75,8.5l-99,130q-9,9 -9,21.5t 9,21.5l 99,129.5q 9,9 21.75,9t 21.75-9t 9-21.5t-9-21.5l-82.5-108l 82.5-108q 9-9 9-21.75t-9-21.5z" data-tags="html" />
<glyph unicode="&#xe00f;" d="M 384,454.4L 128,454.4 C 99.84,454.4, 76.8,431.36, 76.8,403.2l0-358.4 c0-28.16, 23.040-51.2, 51.2-51.2l 256,0 c 28.16,0, 51.2,23.040, 51.2,51.2L 435.2,403.2 C 435.2,431.36, 412.16,454.4, 384,454.4z M 148.787,347.674l 214.4,0 l0-44.8 L 148.787,302.874 L 148.787,347.674 
	z M 363.187,101.888L 148.787,101.888 l0,44.8 l 214.4,0 L 363.187,101.888 z M 363.802,201.728L 149.402,201.728 l0,46.080 l 214.4,0 L 363.802,201.728 z" data-tags="text, file, document" />
<glyph unicode="&#xe010;" d="M 448,480L 256,480 C 220.672,480, 192,451.328, 192,416l0-192 c0-35.328, 28.672-64, 64-64l 192,0 c 35.328,0, 64,28.672, 64,64L 512,416 
			C 512,451.328, 483.328,480, 448,480z M 448,256c0-17.696-14.304-32-32-32L 288,224 C 270.304,224, 256,238.304, 256,256L 256,384 c0,17.664, 14.304,32, 32,32l 128,0 c 17.696,0, 32-14.336, 32-32L 448,256 z M 256,64
			c0-17.696-14.304-32-32-32L 96,32 c-17.696,0-32,14.304-32,32L 64,192 c0,17.696, 14.304,32, 32,32l 32,0 L 128,288 L 64,288 C 28.672,288,0,259.328,0,224l0-192 c0-35.328, 28.672-64, 64-64l 192,0 
			c 35.328,0, 64,28.672, 64,64l0,64 L 256,96 L 256,64 z" data-tags="popup, gallery" />
<glyph unicode="&#xe011;" d="M 384,75.52L 51.2,75.52 l0,230.4 l 66.432,0 c0,0, 17.638,22.938, 55.552,51.2L 25.6,357.12 c-14.131,0-25.6-11.469-25.6-25.6l0-281.6 c0-14.157, 11.469-25.6, 25.6-25.6l 384,0 c 14.157,0, 25.6,11.443, 25.6,25.6l0,95.898 
		l-51.2-42.112L 384,75.52 z M 342.067,253.44l0-90.88 L 512,295.706L 342.067,423.68l0-80.128 C 135.68,343.526, 135.68,139.52, 135.68,139.52C 194.099,235.469, 230.042,253.44, 342.067,253.44z" data-tags="export, share, outside" />
<glyph unicode="&#xe012;" d="M 128,75.52L 460.8,75.52 l0,230.4 l -66.432,0 c0,0, -17.638,22.938, -55.552,51.2L 486.4,357.12 c 14.131,0 25.6-11.469 25.6-25.6l0-281.6 c0-14.157, -11.469-25.6, -25.6-25.6l -384,0 c -14.157,0, -25.6,11.443, -25.6,25.6l0,95.898 
		l 51.2-42.112L 128,75.52 z M 169.933,253.44l0-90.88 L 0,295.706L 169.933,423.68l0-80.128 C 376.32,343.526, 376.32,139.52, 376.32,139.52C 317.901,235.469, 281.958,253.44, 169.933,253.44z" data-tags="export, share, outside" />
<glyph unicode="&#xf332;" d="M 448,96l-256,0 q-26.5,0 -45.25,18.75t-18.75,45.25l0,256 q0,26.5 18.75,45.25t 45.25,18.75l 256,0 q 26.5,0 45.25-18.75t 18.75-45.25l0-256 q0-26.5 -18.75-45.25t-45.25-18.75zM 448,384q0,13.5 -9.25,22.75t-22.75,9.25l-192,0 q-13.5,0 -22.75-9.25t-9.25-22.5t 9.25-22.75t 22.75-9.5l 116,0 l-139.5-139.5
q-9-9 -9-21.75t 9-21.75t 21.75-9t 21.75,9l 140,140l0-117 q0-13.5 9.5-22.75t 22.75-9.25t 22.5,9.25t 9.25,22.75l0,192 zM 416-0.25q0-13.25 -9.25-22.5t-22.75-9.25l-320,0 q-26.5,0 -45.25,18.75t-18.75,45.25l0,320 q0,13.5 9.25,22.75t 22.5,9.25t 22.75-9.25t 9.5-22.75l0-288 q0-13.5 9.25-22.75
t 22.75-9.25l 288,0 q 13,0 22.5-9.5t 9.5-22.75z" data-tags="opennewwindow" />
<glyph unicode="&#xe013;" d="M 400,480L 80,480 C 53.6,480, 32,458.4, 32,432l0-416 c0-26.4, 21.6-48, 48-48l 320,0 c 26.4,0, 48,21.6, 48,48L 448,432 C 448,458.4, 426.4,480, 400,480z M 240-16
	c-8.836,0-16,7.163-16,16s 7.164,16, 16,16s 16-7.163, 16-16S 248.836-16, 240-16z M 384,32L 96,32 L 96,416 l 288,0 L 384,32 z" data-tags="tablet, mobile" />
<glyph unicode="&#xe014;" d="M 368,480L 144,480 c-26.4,0-48-21.6-48-48l0-416 c0-26.4, 21.6-48, 48-48l 224,0 c 26.4,0, 48,21.6, 48,48L 416,432 C 416,458.4, 394.4,480, 368,480z M 192,456
	l 128,0 l0-16 L 192,440 L 192,456 z M 256,0c-17.673,0-32,14.327-32,32s 14.327,32, 32,32s 32-14.327, 32-32S 273.673,0, 256,0z M 384,96L 128,96 L 128,416 l 256,0 L 384,96 
	z" data-tags="mobile, phone, handheld" />
<glyph unicode="&#xe015;" d="M 0.403,45.168c-0.122,1.266-0.226,2.535-0.292,3.815C 0.176,47.703, 0.281,46.434, 0.403,45.168zM 117.954,197.426c 46.005-1.369, 76.867,46.349, 68.931,106.599c-7.947,60.24-51.698,108.584-97.704,109.961
		c-46.013,1.365-76.87-44.741-68.926-105C 28.196,248.752, 71.931,198.799, 117.954,197.426zM 512,352L 512,394.655 C 512,441.595, 473.609,480, 426.671,480L 85.343,480 C 39.205,480, 1.337,442.884, 0.061,397.037
		c 29.181,25.693, 69.662,47.158, 111.437,47.158c 44.652,0, 178.622,0, 178.622,0l-39.974-33.809l-56.634,0 
		c 37.565-14.402, 57.578-58.062, 57.578-102.861c0-37.624-20.905-69.977-50.444-92.984c-28.822-22.451-34.286-31.854-34.286-50.939
		c0-16.289, 30.873-44, 47.016-55.394c 47.191-33.269, 62.458-64.156, 62.458-115.728c0-8.214-1.021-16.415-3.033-24.48l 153.871,0 
		C 473.609-32, 512,6.375, 512,53.345L 512,319.999 l-96,0 L 416,224 l-32,0 l0,96 l-95.999,0 l0,32 L 384,352 L 384,448 l 32,0 l0-96 L 512,352 zM 92.943,97.032c 10.807,0, 20.711,0.295, 30.968,0.295c-13.573,13.167-24.313,29.3-24.313,49.19
		c0,11.804, 3.782,23.168, 9.067,33.26c-5.391-0.385-10.895-0.497-16.563-0.497c-37.178,0-68.753,12.038-92.102,31.927l0-33.621 
		l 0.003-100.865C 26.723,89.408, 58.447,97.032, 92.943,97.032zM 1.71,36.371c-0.556,2.729-0.983,5.503-1.271,8.317C 0.726,41.874, 1.154,39.1, 1.71,36.371zM 227.725,3.577c-7.529,29.403-34.227,43.982-71.444,69.784c-13.536,4.366-28.447,6.937-44.447,7.104
		c-44.809,0.482-86.554-17.471-110.108-44.186C 9.686-2.574, 44.243-32, 85.343-32l 143.222,0 c 0.908,5.564, 1.348,11.316, 1.348,17.216
		C 229.913-8.517, 229.146-2.388, 227.725,3.577z" data-tags="google plus, social" />
<glyph unicode="&#xe016;" d="M 512,382.791c-18.838-8.354-39.082-14.001-60.33-16.54c 21.686,13, 38.343,33.585, 46.186,58.115
	c-20.298-12.039-42.778-20.78-66.705-25.49c-19.16,20.415-46.461,33.17-76.673,33.17c-58.011,0-105.044-47.029-105.044-105.039
	c0-8.233, 0.929-16.25, 2.72-23.939c-87.3,4.382-164.701,46.2-216.509,109.753c-9.042-15.514-14.223-33.558-14.223-52.809
	c0-36.444, 18.544-68.596, 46.73-87.433c-17.219,0.546-33.416,5.271-47.577,13.139c-0.010-0.438-0.010-0.878-0.010-1.321
	c0-50.894, 36.209-93.348, 84.261-103c-8.813-2.4-18.094-3.686-27.674-3.686c-6.769,0-13.349,0.66-19.764,1.886
	c 13.368-41.73, 52.16-72.103, 98.126-72.948c-35.95-28.175-81.243-44.967-130.458-44.967c-8.479,0-16.84,0.497-25.058,1.47
	c 46.486-29.805, 101.701-47.197, 161.021-47.197c 193.211,0, 298.868,160.062, 298.868,298.872c0,4.554-0.103,9.084-0.305,13.59
	C 480.11,343.227, 497.918,361.727, 512,382.791z" data-tags="twitter, tweet, social" />
<glyph unicode="&#xe017;" d="M 426.672,480L 85.342,480 C 38.406,480,0,441.593,0,394.656l0-341.313 C0,6.374, 38.406-32, 85.342-32l 341.33,0.001
	c 46.938,0, 85.328,38.373, 85.328,85.344L 512,394.656 C 512,441.593, 473.609,480, 426.672,480z M 435.296,224L 352,224 l0-224 l-96,0 L 256,224 l-46.263,0 l0,73.282 L 256,297.282 
	l0,47.593 C 256,409.546, 283.896,448, 359.935,448l 87.622,0 l0-79.285 l-71.565,0 c-21.241,0.035-23.876-11.076-23.876-31.756L 352,297.282l 96,0 
	L 435.296,224z" data-tags="facebook, social" />
<glyph unicode="&#xe018;" d="M 256,480C 114.615,480,0,365.385,0,224s 114.615-256, 256-256s 256,114.615, 256,256S 397.385,480, 256,480z M 256,32
	c-106.039,0-192,85.961-192,192c0,106.039, 85.961,192, 192,192c 106.039,0, 192-85.961, 192-192C 448,117.961, 362.039,32, 256,32z" data-tags="radio-unchecked, circle" />
<glyph unicode="&#xf096;" d="M 256,280.32c-31.104,0-56.32-25.216-56.32-56.32s 25.216-56.32, 56.32-56.32s 56.32,25.216, 56.32,56.32S 287.104,280.32, 256,280.32z" data-tags="dot, circle" />
<glyph unicode="&#x2713;" d="M 320,406.857l-237.714,0 q-18.857,0 -32.286-13.429t-13.429-32.286l0-237.714 q0-18.857 13.429-32.286t 32.286-13.429l 237.714,0 q 18.857,0 32.286,13.429t 13.429,32.286l0,237.714 q0,18.857 -13.429,32.286t-32.286,13.429zM 402.286,361.143l0-237.714 q0-34 -24.143-58.143t-58.143-24.143l-237.714,0 q-34,0 -58.143,24.143t-24.143,58.143l0,237.714 q0,34 24.143,58.143t 58.143,24.143l 237.714,0  q 34,0 58.143-24.143t 24.143-58.143z" horiz-adv-x="475.429" data-tags="check-empty, checkbox, square" />
<glyph unicode="&#xe019;" d="M 503,317.5l-309.5-309q-9-9 -26.5-8.5q-16,0.5 -24.5,8.5l-133.5,133.5q-9,9 -9,22t 9,22l 44.5,44.5q 9,9 22,9t 22-9l 70.5-70.5l 246.5,246q 9,9 22,9t 22-9l 44.5-44q 9-9.5 9-22.25t-9-22.25z" data-tags="checkmark" />
<glyph unicode="&#xe01a;" d="M 460.288,258.684c 10.576,0, 19.163-8.719, 19.163-19.427c0-10.737-8.587-19.441-19.163-19.441l-59.963,0 
			c-10.576,0-19.193,8.704-19.193,19.441c0,10.708, 8.616,19.427, 19.193,19.427L 460.288,258.684  M 218.668,208.947l 29.199-29.594l 79.594,80.677l-29.199,29.594
			L 218.668,208.947z M 393.172,100.418L 393.172,100.418l-42.408,42.993c-7.475,7.578-7.475,19.895,0,27.472c 7.49,7.563, 19.602,7.563, 27.092,0
			l 42.423-42.993c 7.49-7.563, 7.49-19.88,0-27.472S 400.677,92.811, 393.172,100.418z M 379.714,309.343L 379.714,309.343L 379.714,309.343
			c-7.49-7.578-19.602-7.578-27.092,0c-7.504,7.563-7.49,19.88,0,27.472l-0.015,0 c 0.015,0, 0.015,0, 0.015,0l 42.394,42.993
			c 7.49,7.578, 19.632,7.578, 27.136,0s 7.49-19.895,0-27.472L 379.714,309.343L 379.714,309.343z M 284.643,337.093
			c-10.562,0-19.163,8.719-19.163,19.427L 265.479,417.317 c0,10.708, 8.602,19.427, 19.163,19.427c 10.591,0, 19.163-8.719, 19.163-19.427l0-60.796 
			C 303.806,345.812, 295.234,337.093, 284.643,337.093 M0,27.845l 295.439,299.447l 69.179-70.129L 79.345-32L 512-32 L 512,480 L0,480 L0,27.845 z M 147.661,349.279
			c-7.49,7.592-7.49,19.88,0,27.472s 19.602,7.578, 27.077,0l 42.437-42.993c 7.49-7.563, 7.49-19.866,0-27.472
			c-7.475-7.563-19.602-7.563-27.077,0L 147.661,349.279z M 147.661,349.279L 147.661,349.279" data-tags="mark-presto" />
<glyph unicode="&#xe01b;" d="M 427.76-30.992l0,27.408 L 153.52-3.584 L 153.52-30.992 L 71.264-30.992 L 71.264,380.336 l 82.256,0 l0-27.408 l 274.24,0 l0,27.408 L 510,380.336 L 510-30.992 L 427.76-30.992 z M 126.096,352.912l-27.408,0 l0-27.424 l 27.408,0 L 126.096,352.912 z
	 M 126.096,298.064l-27.408,0 l0-27.424 l 27.408,0 L 126.096,298.064 z M 126.096,243.232l-27.408,0 l0-27.44 l 27.408,0 L 126.096,243.232 z M 126.096,188.4l-27.408,0 l0-27.456 l 27.408,0 L 126.096,188.4 z
	 M 126.096,133.536l-27.408,0 l0-27.424 l 27.408,0 L 126.096,133.536 z M 126.096,78.704l-27.408,0 l0-27.44 l 27.408,0 L 126.096,78.704 z M 126.096,23.84l-27.408,0 l0-27.472 l 27.408,0 L 126.096,23.84 z
	 M 427.76,325.488L 153.52,325.488 l0-301.648 l 274.24,0 L 427.76,325.488 z M 482.576,352.912l-27.456,0 l0-27.424 l 27.456,0 L 482.576,352.912 z M 482.576,298.064l-27.456,0 l0-27.424 l 27.456,0 L 482.576,298.064 z
	 M 482.576,243.232l-27.456,0 l0-27.44 l 27.456,0 L 482.576,243.232 z M 482.576,188.4l-27.456,0 l0-27.456 l 27.456,0 L 482.576,188.4 z M 482.576,133.536l-27.456,0 l0-27.424 l 27.456,0 L 482.576,133.536 z
	 M 482.576,78.704l-27.456,0 l0-27.44 l 27.456,0 L 482.576,78.704 z M 482.576,23.84l-27.456,0 l0-27.472 l 27.456,0 L 482.576,23.84 z M 235.76,106.128l0,137.136 l 109.696-68.528
	L 235.76,106.128z M 39.872,33.744l-41.872,0 L-2,479.008 l 111.040,0 l0-27.024 l 250.896,0 L 359.936,479.008 l 101.952,0 l0-69.36 l-34.16,0 L 427.744,445.056 l-37.376,0 l0-26.96 L 71.264,418.096 L 71.264,442.288 L 31.872,442.288 l0-375.344 l 8,0 
	L 39.872,33.744 z" data-tags="video-playlist" />
<glyph unicode="&#xe01c;" d="M 422.648,446.891l-1.784,1.784c-41.751,41.736-110.018,41.736-151.754,0l-96.69-96.69c-41.751-41.736-41.751-110.002,0-151.723l 1.784-1.784
			c 3.491-3.475, 7.168-6.609, 10.985-9.511l 35.375,35.375c-4.127,2.436-8.037,5.353-11.574,8.906l-1.784,1.8
			c-22.652,22.652-22.652,59.501,0,82.168l 96.675,96.706c 22.652,22.652, 59.532,22.652, 82.184,0l 1.769-1.784c 22.652-22.637, 22.652-59.532,0-82.168
			l-43.737-43.753c 7.587-18.758, 11.186-38.726, 10.892-58.678l 67.646,67.646C 464.368,336.904, 464.368,405.186, 422.648,446.891z M 279.738,307.596
			c-3.475,3.475-7.152,6.609-10.969,9.511l-35.375-35.39c 4.127-2.451, 8.037-5.353, 11.574-8.906l 1.769-1.784
			c 22.652-22.652, 22.652-59.516,0-82.168l-96.675-96.706c-22.652-22.637-59.532-22.637-82.184,0l-1.784,1.769c-22.652,22.637-22.652,59.516,0,82.184
			l 43.753,43.737c-7.587,18.758-11.202,38.741-10.876,58.678l-67.646-67.662c-41.736-41.736-41.736-110.018,0-151.738l 1.784-1.769
			c 41.751-41.751, 110.033-41.751, 151.738,0l 96.675,96.659c 41.751,41.751, 41.751,110.033,0,151.769L 279.738,307.596zM 211.503,29.952L 310.381,128.83L 410.996,128.83L 410.996,186.050L 509.207,81.168L 407.536-32.109L 407.536,29.952 	z" data-tags="link-related" />
<glyph unicode="&#xf182;" d="M 504.5,205l-217.5-231.5q-12.5-13.5 -31,6.5l0,488 q 18.5,20 31,6.5l 217.5-231.5q 7.5-8 7.5-19.25t-7.5-18.75zM 31-26.5q-12.5-13.5 -31,6.5l0,488 q 18.5,20 31,6.5l 217.5-231.5q 7.5-8 7.5-19.25t-7.5-18.75z" data-tags="fastforward" />
<glyph unicode="&#xf183;" d="M 481-26.5l-217.5,231.5q-7.5,8 -7.5,19.25t 7.5,18.75l 217.5,232q 12.5,13 31-7l0-488.5 q-18.5-19.5 -31-6zM 225-26.5l-217.5,231.5q-7.5,8 -7.5,19.25t 7.5,18.75l 217.5,232q 12.5,13 31-7l0-488.5 q-18.5-19.5 -31-6z" data-tags="rewind" />
<glyph unicode="&#xf184;" d="M 63,476.5l 409.5-233.5q 8-4.5 8-19.75t-8-18.75l-409.5-233.5q-6-4 -15-2.75t-16,8.75l0,492.5 q 15.5,17 31,7z" data-tags="play" />
<glyph unicode="&#xf185;" d="M 64,480l 384,0 q 26.5,0 45.25-18.75t 18.75-45.25l0-384 q0-26.5 -18.75-45.25t-45.25-18.75l-384,0 q-26.5,0 -45.25,18.75t-18.75,45.25l0,384 q0,26.5 18.75,45.25t 45.25,18.75z" data-tags="stop" />
<glyph unicode="&#xf186;" d="M 448-32l-64,0 q-26.5,0 -45.25,18.75t-18.75,45.25l0,384 q0,26.5 18.75,45.25t 45.25,18.75l 64,0 q 26.5,0 45.25-18.75t 18.75-45.25l0-384 q0-26.5 -18.75-45.25t-45.25-18.75zM 128-32l-64,0 q-26.5,0 -45.25,18.75t-18.75,45.25l0,384 q0,26.5 18.75,45.25t 45.25,18.75l 64,0 q 26.5,0 45.25-18.75t 18.75-45.25l0-384 
q0-26.5 -18.75-45.25t-45.25-18.75z" data-tags="pause" />
<glyph unicode="&#xf187;" d="M 448,64l-288,0 l0-84.5 q-18.5-19.5 -31-6l-121.5,103.5q-7.5,8 -7.5,19t 7.5,19l 121.5,103.5q 12.5,13.5 31-6.5l0-84 l 256,0 q 13,0 22.5,9.25t 9.5,22.75l0,64 q0,13 9.25,22.5t 22.5,9.5t 22.75-9.5t 9.5-22.5l0-96 q0-26.5 -18.75-45.25t-45.25-18.75zM 383,229q-12.5-13.5 -31,6.5l0,84.5 l-256,0 q-13.5,0 -22.75-9.5t-9.25-22.5
l0-64 q0-13.5 -9.5-22.75t-22.75-9.25t-22.5,9.25t-9.25,22.75l0,96 q0,26.5 18.75,45.25t 45.25,18.75l 288,0 l0,84 q 18.5,19.5 31,6l 121.5-103.5q 7.5-8 7.5-19t-7.5-19z" data-tags="repeat" />
<glyph unicode="&#xf188;" d="M 383,229.5q-12.5-13.5 -31,6.5l0,83 q-61.5-5 -98.5-26q-7.5,30.5 -35,55q 56,36 133.5,36.5l0,84 q 18.5,19.5 31,6l 121.5-103.5q 7.5-8 7.5-19t-7.5-19zM 224,192q0-23 36.25-40.5t 91.75-22l0,83 q 18.5,19.5 31,6l 121.5-103.5q 7.5-8 7.5-19t-7.5-19l-121.5-103.5q-12.5-13.5 -31,6.5l0,84 q-52,0 -96.25,17.25
t-70,46.75t-25.75,64l0,64 q0,23.5 -36.25,41t-91.75,22l0,1 q-13,0 -22.5,9.5t-9.5,22.75t 9.5,22.75t 22.5,9.5q 52,0 96.25-17.25t 70-46.75t 25.75-64.5l0-64 zM 32,128l0,1.5 q 61.5,5 98.5,26q 7.5-30 35-55q-56-36.5 -133.5-36.5q-13,0 -22.5,9.5t-9.5,22.75t 9.5,22.5t 22.5,9.25z" data-tags="shuffle" />
<glyph unicode="&#xf189;" d="M 256,480q 69.5,0 128.5-34.25t 93.25-93.25t 34.25-128.5t-34.25-128.5t-93.25-93.25t-128.5-34.25t-128.5,34.25t-93.25,93.25t-34.25,128.5t 34.25,128.5t 93.25,93.25t 128.5,34.25z" data-tags="record" />
<glyph unicode="&#xf18a;" d="M 448-32q-26.5,0 -45.25,18.75t-18.75,45.25l0,384 q0,26.5 18.75,45.25t 45.25,18.75t 45.25-18.75t 18.75-45.25l0-384 q0-26.5 -18.75-45.25t-45.25-18.75zM 31-26.5q-12.5-13.5 -31,6.5l0,488 q 18.5,20 31,6.5l 281.5-231.5q 7.5-8 7.5-19.25t-7.5-18.75z" data-tags="next" />
<glyph unicode="&#xf18b;" d="M 481-26.5l-281.5,231.5q-7.5,7.5 -7.5,18.75t 7.5,19.25l 281.5,231.5q 12.5,13.5 31-6.5l0-488 q-18.5-20 -31-6.5zM 64-32q-26.5,0 -45.25,18.75t-18.75,45.25l0,384 q0,26.5 18.75,45.25t 45.25,18.75t 45.25-18.75t 18.75-45.25l0-384 q0-26.5 -18.75-45.25t-45.25-18.75z" data-tags="previous" />
<glyph unicode="&#xf414;" d="M 480,160l-43,0 q-20-56.5 -69.5-92.25t-111.5-35.75t-111.5,35.75t-69.5,92.25l 70.5,0 q 16.5-29 46-46.5t 64.5-17.5q 53,0 90.5,37.5t 37.5,90.5l 32,0 l 32,0 l 32,0 q 13.5,0 22.75-9.25t 9.25-22.5t-9.25-22.75t-22.75-9.5zM 320,224q0-26.5 -18.75-45.25t-45.25-18.75t-45.25,18.75t-18.75,45.25t 18.75,45.25t 45.25,18.75
t 45.25-18.75t 18.75-45.25zM 256,352q-53,0 -90.5-37.5t-37.5-90.5l-32,0 l-32,0 l-32,0 q-13,0 -22.5,9.25t-9.5,22.5t 9.5,22.75t 22.5,9.5l 43,0 q 20,56.5 69.5,92.25t 111.5,35.75t 111.5-35.75t 69.5-92.25l-70,0 q-17,29 -46.5,46.5t-64.5,17.5z" data-tags="sharethree" />
<glyph unicode="&#x20;" horiz-adv-x="256" />
</font>
</defs>
</svg>
